<svg style="position: absolute; width: 0; height: 0; overflow: hidden;" version="1.1" xmlns="http://www.w3.org/2000/svg" xmlns:xlink="http://www.w3.org/1999/xlink">
<defs>

<symbol id="icon-document" viewBox="0 0 512 512">
<title>document</title>
<path d="M312 155h91c2.8 0 5-2.2 5-5 0-8.9-3.9-17.3-10.7-22.9L321 63.5c-5.8-4.8-13-7.4-20.6-7.4-4.1 0-7.4 3.3-7.4 7.4V136c0 10.5 8.5 19 19 19z"/>
<path d="M267 136V56H136c-17.6 0-32 14.4-32 32v336c0 17.6 14.4 32 32 32h240c17.6 0 32-14.4 32-32V181h-96c-24.8 0-45-20.2-45-45z"/>
</symbol>

<symbol id="icon-trash" viewBox="0 0 512 512">
<title>trash</title>
<path d="M133.1 128l23.6 290.7c0 16.2 13.1 29.3 29.3 29.3h141c16.2 0 29.3-13.1 29.3-29.3L379.6 128H133.1zm61.6 265L188 160h18.5l6.9 233h-18.7zm70.3 0h-18V160h18v233zm52.3 0h-18.6l6.8-233H324l-6.7 233zM364 92h-36l-26.3-23c-3.7-3.2-8.4-5-13.2-5h-64.8c-4.9 0-9.7 1.8-13.4 5L184 92h-36c-17.6 0-30 8.4-30 26h276c0-17.6-12.4-26-30-26z"/></symbol>

<symbol id="icon-journal" viewBox="0 0 512 512">
<title>journal</title>
<path d="M92.1 32C76.6 32 64 44.6 64 60.1V452c0 15.5 12.6 28.1 28.1 28.1H432c8.8 0 16-7.2 16-16s-7.2-16-16-16H112.5c-8.2 0-15.4-6-16.4-14.1-1.1-9.7 6.5-18 15.9-18h208V32H92.1z"/>
<path d="M432 416c8.8 0 16-7.2 16-16V60.1c0-15.5-12.6-28.1-28.1-28.1H368v384h64z"/>

<symbol id="icon-create" viewBox="0 0 512 512">
<title>create</title>
<path d="M404.3 86l-202 202c-1.5 1.5-2.3 3.5-2.3 5.6v26.5c0 4.4 3.6 7.9 7.9 7.9h26.3c2.1 0 4.2-.8 5.7-2.3l202.1-202c3.1-3.1 3.1-8.1 0-11.2L415.5 86c-3.1-3.1-8.1-3.1-11.2 0zM475.6 67l-14.4-14.4-.2-.2c-3.1-2.7-7.2-4.4-11.5-4.4-4.4 0-8.5 1.7-11.6 4.5l-11.3 11.4c-1.5 1.6-1.5 4.1 0 5.6L437 79.9l21.7 21.7c1.6 1.6 4.1 1.6 5.7 0l11.3-11.3c2.8-3.1 4.4-7.1 4.4-11.6-.1-4.4-1.7-8.6-4.5-11.7z"/><g><path d="M250 342c-3 3-7.1 4.7-11.3 4.7H197.3c-8.8 0-16-7.2-16-16V289.2c0-4.2 1.7-8.3 4.7-11.3l.8-.8 147.6-147.6c2.5-2.5.7-6.8-2.8-6.8H90.7C58.3 122.7 32 149 32 181.4v224c0 32.4 26.3 58.7 58.7 58.7h256c32.4 0 58.7-26.3 58.7-58.7v-209c0-3.6-4.3-5.3-6.8-2.8L250.8 341.2l-.8.8z"/></g>

<symbol id="icon-add" viewBox="0 0 512 512">
<title>add</title>
<path d="M368.5 240H272v-96.5c0-8.8-7.2-16-16-16s-16 7.2-16 16V240h-96.5c-8.8 0-16 7.2-16 16 0 4.4 1.8 8.4 4.7 11.3 2.9 2.9 6.9 4.7 11.3 4.7H240v96.5c0 4.4 1.8 8.4 4.7 11.3 2.9 2.9 6.9 4.7 11.3 4.7 8.8 0 16-7.2 16-16V272h96.5c8.8 0 16-7.2 16-16s-7.2-16-16-16z"/>

<symbol id="icon-close" viewBox="0 0 512 512">
<title>close</title>
<path d="M278.6 256l68.2-68.2c6.2-6.2 6.2-16.4 0-22.6-6.2-6.2-16.4-6.2-22.6 0L256 233.4l-68.2-68.2c-6.2-6.2-16.4-6.2-22.6 0-3.1 3.1-4.7 7.2-4.7 11.3 0 4.1 1.6 8.2 4.7 11.3l68.2 68.2-68.2 68.2c-3.1 3.1-4.7 7.2-4.7 11.3 0 4.1 1.6 8.2 4.7 11.3 6.2 6.2 16.4 6.2 22.6 0l68.2-68.2 68.2 68.2c6.2 6.2 16.4 6.2 22.6 0 6.2-6.2 6.2-16.4 0-22.6L278.6 256z"/>

</defs>
</svg>

